<mxfile host="app.diagrams.net" agent="Mozilla/5.0 (Macintosh; Intel Mac OS X 10_15_7) AppleWebKit/537.36 (KHTML, like Gecko) Chrome/131.0.0.0 Safari/537.36" version="25.0.3">
  <diagram name="Página-1" id="eCjX-Mc3OZuhmkmpErIh">
    <mxGraphModel dx="2891" dy="1155" grid="1" gridSize="10" guides="1" tooltips="1" connect="1" arrows="1" fold="1" page="1" pageScale="1" pageWidth="827" pageHeight="1169" math="0" shadow="0">
      <root>
        <mxCell id="0" />
        <mxCell id="1" parent="0" />
        <mxCell id="Uv0THF-CeisL3fsCuE-2-1" value="&lt;h1 style=&quot;margin-top: 0px;&quot;&gt;&lt;span style=&quot;background-color: initial;&quot;&gt;DATOS&lt;/span&gt;&lt;/h1&gt;&lt;h1 style=&quot;margin-top: 0px;&quot;&gt;&lt;span style=&quot;background-color: initial; font-size: 12px; font-weight: normal;&quot;&gt;Línea chárter&lt;/span&gt;&lt;/h1&gt;&lt;h1 style=&quot;margin-top: 0px;&quot;&gt;&lt;span style=&quot;background-color: initial; font-size: 12px; font-weight: normal;&quot;&gt;Aviones&lt;/span&gt;&lt;/h1&gt;&lt;h1 style=&quot;margin-top: 0px;&quot;&gt;&lt;span style=&quot;background-color: initial; font-size: 12px; font-weight: normal;&quot;&gt;Air320- numero (10), Cortos recorridos, matrícula, asientos(180), no clase, nombre, cantidad fuel&lt;/span&gt;&lt;/h1&gt;&lt;div&gt;&lt;span style=&quot;background-color: initial; font-size: 12px; font-weight: normal;&quot;&gt;Air A330- numero (3), largos recorridos, matrícula, asientos (380), clase (1a y turista), nombre, cantidad fuel&lt;/span&gt;&lt;/div&gt;&lt;div&gt;&lt;br&gt;&lt;/div&gt;&lt;div&gt;&lt;span style=&quot;background-color: initial;&quot;&gt;&lt;br&gt;&lt;/span&gt;&lt;/div&gt;&lt;div&gt;&lt;span style=&quot;background-color: initial;&quot;&gt;vuelos, código,&amp;nbsp; Aeropuerto IATA(PMI), fecha, hora&lt;/span&gt;&lt;br&gt;&lt;/div&gt;&lt;div&gt;&lt;span style=&quot;background-color: initial;&quot;&gt;&lt;br&gt;&lt;/span&gt;&lt;/div&gt;&lt;div&gt;&lt;span style=&quot;background-color: initial;&quot;&gt;&lt;br&gt;&lt;/span&gt;&lt;/div&gt;&lt;div&gt;&lt;span style=&quot;background-color: initial;&quot;&gt;Aeropuerto- IATA, coordenadas, franja horaria, ubicación, tipos (autorizados),&amp;nbsp;&lt;/span&gt;&lt;/div&gt;&lt;div&gt;&lt;span style=&quot;background-color: initial;&quot;&gt;&lt;br&gt;&lt;/span&gt;&lt;/div&gt;&lt;div&gt;&lt;span style=&quot;background-color: initial;&quot;&gt;&lt;br&gt;&lt;/span&gt;&lt;/div&gt;&lt;div&gt;&lt;span style=&quot;background-color: initial;&quot;&gt;PIlotos-&amp;nbsp; Licencia, antigüedad, categorías,&amp;nbsp;&lt;/span&gt;&lt;/div&gt;&lt;div&gt;&lt;span style=&quot;background-color: initial;&quot;&gt;&lt;br&gt;&lt;/span&gt;&lt;/div&gt;&lt;div&gt;&lt;span style=&quot;background-color: initial;&quot;&gt;Tripulantes- categorías, habilitación, solicitar incompatibilidad,&amp;nbsp;&lt;/span&gt;&lt;/div&gt;&lt;div&gt;&lt;span style=&quot;background-color: initial; font-size: 12px; font-weight: normal;&quot;&gt;&lt;br&gt;&lt;/span&gt;&lt;/div&gt;&lt;div&gt;&lt;span style=&quot;background-color: initial; font-size: 12px; font-weight: normal;&quot;&gt;&lt;br&gt;&lt;/span&gt;&lt;/div&gt;" style="text;html=1;whiteSpace=wrap;overflow=hidden;rounded=0;" parent="1" vertex="1">
          <mxGeometry x="-810" y="20" width="580" height="400" as="geometry" />
        </mxCell>
        <mxCell id="TxgCbAa6hnQQ9wby8Wfp-1" value="AVION&lt;div&gt;AEROLÍNEA&lt;/div&gt;" style="rounded=0;whiteSpace=wrap;html=1;" parent="1" vertex="1">
          <mxGeometry x="450" y="450" width="120" height="60" as="geometry" />
        </mxCell>
        <mxCell id="TxgCbAa6hnQQ9wby8Wfp-22" value="NÚMERO" style="ellipse;whiteSpace=wrap;html=1;" parent="1" vertex="1">
          <mxGeometry x="145" y="520" width="70" height="50" as="geometry" />
        </mxCell>
        <mxCell id="TxgCbAa6hnQQ9wby8Wfp-23" value="FUEL" style="ellipse;whiteSpace=wrap;html=1;" parent="1" vertex="1">
          <mxGeometry x="68.1" y="510" width="60" height="40" as="geometry" />
        </mxCell>
        <mxCell id="TxgCbAa6hnQQ9wby8Wfp-24" value="ASIENTOS" style="ellipse;whiteSpace=wrap;html=1;dashed=1;" parent="1" vertex="1">
          <mxGeometry x="56.19" y="385" width="83.81" height="50" as="geometry" />
        </mxCell>
        <mxCell id="TxgCbAa6hnQQ9wby8Wfp-25" value="&lt;u&gt;MATRÍCULA&lt;/u&gt;" style="ellipse;whiteSpace=wrap;html=1;" parent="1" vertex="1">
          <mxGeometry x="390" y="340" width="100" height="60" as="geometry" />
        </mxCell>
        <mxCell id="TxgCbAa6hnQQ9wby8Wfp-26" value="" style="endArrow=none;html=1;rounded=0;" parent="1" source="TxgCbAa6hnQQ9wby8Wfp-23" target="dHpdYgMEqJzql0knfR7l-53" edge="1">
          <mxGeometry width="50" height="50" relative="1" as="geometry">
            <mxPoint x="570" y="250" as="sourcePoint" />
            <mxPoint x="510" y="320" as="targetPoint" />
          </mxGeometry>
        </mxCell>
        <mxCell id="TxgCbAa6hnQQ9wby8Wfp-29" value="" style="endArrow=none;html=1;rounded=0;" parent="1" source="TxgCbAa6hnQQ9wby8Wfp-25" target="TxgCbAa6hnQQ9wby8Wfp-1" edge="1">
          <mxGeometry width="50" height="50" relative="1" as="geometry">
            <mxPoint x="600" y="330" as="sourcePoint" />
            <mxPoint x="468.75" y="320" as="targetPoint" />
          </mxGeometry>
        </mxCell>
        <mxCell id="TxgCbAa6hnQQ9wby8Wfp-33" value="NOMBRE" style="ellipse;whiteSpace=wrap;html=1;" parent="1" vertex="1">
          <mxGeometry x="500" y="330" width="100" height="60" as="geometry" />
        </mxCell>
        <mxCell id="TxgCbAa6hnQQ9wby8Wfp-34" value="" style="endArrow=none;html=1;rounded=0;" parent="1" source="TxgCbAa6hnQQ9wby8Wfp-1" target="TxgCbAa6hnQQ9wby8Wfp-33" edge="1">
          <mxGeometry width="50" height="50" relative="1" as="geometry">
            <mxPoint x="558.75" y="320" as="sourcePoint" />
            <mxPoint x="530" y="290" as="targetPoint" />
          </mxGeometry>
        </mxCell>
        <mxCell id="TxgCbAa6hnQQ9wby8Wfp-37" value="REALIZAR" style="rhombus;whiteSpace=wrap;html=1;" parent="1" vertex="1">
          <mxGeometry x="735" y="435" width="90" height="90" as="geometry" />
        </mxCell>
        <mxCell id="TxgCbAa6hnQQ9wby8Wfp-38" value="VUELO" style="rounded=0;whiteSpace=wrap;html=1;" parent="1" vertex="1">
          <mxGeometry x="810" y="720" width="120" height="60" as="geometry" />
        </mxCell>
        <mxCell id="TxgCbAa6hnQQ9wby8Wfp-39" value="" style="endArrow=none;html=1;rounded=0;" parent="1" source="TxgCbAa6hnQQ9wby8Wfp-37" target="TxgCbAa6hnQQ9wby8Wfp-38" edge="1">
          <mxGeometry width="50" height="50" relative="1" as="geometry">
            <mxPoint x="800" y="730" as="sourcePoint" />
            <mxPoint x="850" y="680" as="targetPoint" />
          </mxGeometry>
        </mxCell>
        <mxCell id="TxgCbAa6hnQQ9wby8Wfp-41" value="0:N" style="edgeLabel;html=1;align=center;verticalAlign=middle;resizable=0;points=[];" parent="TxgCbAa6hnQQ9wby8Wfp-39" vertex="1" connectable="0">
          <mxGeometry x="-0.675" y="-1" relative="1" as="geometry">
            <mxPoint as="offset" />
          </mxGeometry>
        </mxCell>
        <mxCell id="TxgCbAa6hnQQ9wby8Wfp-40" value="" style="endArrow=none;html=1;rounded=0;" parent="1" source="TxgCbAa6hnQQ9wby8Wfp-1" target="TxgCbAa6hnQQ9wby8Wfp-37" edge="1">
          <mxGeometry width="50" height="50" relative="1" as="geometry">
            <mxPoint x="800" y="430" as="sourcePoint" />
            <mxPoint x="850" y="380" as="targetPoint" />
          </mxGeometry>
        </mxCell>
        <mxCell id="TxgCbAa6hnQQ9wby8Wfp-45" value="1:1" style="edgeLabel;html=1;align=center;verticalAlign=middle;resizable=0;points=[];" parent="TxgCbAa6hnQQ9wby8Wfp-40" vertex="1" connectable="0">
          <mxGeometry x="0.6179" relative="1" as="geometry">
            <mxPoint x="10" as="offset" />
          </mxGeometry>
        </mxCell>
        <mxCell id="TxgCbAa6hnQQ9wby8Wfp-49" value="FECHA" style="ellipse;whiteSpace=wrap;html=1;dashed=1;" parent="1" vertex="1">
          <mxGeometry x="1071.82" y="635" width="68.18" height="50" as="geometry" />
        </mxCell>
        <mxCell id="TxgCbAa6hnQQ9wby8Wfp-52" value="" style="endArrow=none;html=1;rounded=0;" parent="1" source="TxgCbAa6hnQQ9wby8Wfp-70" target="TxgCbAa6hnQQ9wby8Wfp-49" edge="1">
          <mxGeometry width="50" height="50" relative="1" as="geometry">
            <mxPoint x="1105.3197594115911" y="685.6202405884092" as="sourcePoint" />
            <mxPoint x="1028.18" y="535" as="targetPoint" />
          </mxGeometry>
        </mxCell>
        <mxCell id="TxgCbAa6hnQQ9wby8Wfp-54" value="FECHA&lt;div&gt;SALIDA&lt;/div&gt;" style="ellipse;whiteSpace=wrap;html=1;" parent="1" vertex="1">
          <mxGeometry x="1140" y="560" width="80" height="50" as="geometry" />
        </mxCell>
        <mxCell id="TxgCbAa6hnQQ9wby8Wfp-55" value="FECHA&lt;div&gt;ENTRADA&lt;/div&gt;" style="ellipse;whiteSpace=wrap;html=1;" parent="1" vertex="1">
          <mxGeometry x="1040" y="550" width="80" height="50" as="geometry" />
        </mxCell>
        <mxCell id="TxgCbAa6hnQQ9wby8Wfp-56" value="" style="endArrow=none;html=1;rounded=0;" parent="1" source="TxgCbAa6hnQQ9wby8Wfp-49" target="TxgCbAa6hnQQ9wby8Wfp-55" edge="1">
          <mxGeometry width="50" height="50" relative="1" as="geometry">
            <mxPoint x="950.0000000000001" y="660" as="sourcePoint" />
            <mxPoint x="1000.0000000000001" y="610" as="targetPoint" />
          </mxGeometry>
        </mxCell>
        <mxCell id="TxgCbAa6hnQQ9wby8Wfp-57" value="" style="endArrow=none;html=1;rounded=0;" parent="1" source="TxgCbAa6hnQQ9wby8Wfp-49" target="TxgCbAa6hnQQ9wby8Wfp-54" edge="1">
          <mxGeometry width="50" height="50" relative="1" as="geometry">
            <mxPoint x="950.0000000000001" y="660" as="sourcePoint" />
            <mxPoint x="1000.0000000000001" y="610" as="targetPoint" />
          </mxGeometry>
        </mxCell>
        <mxCell id="TxgCbAa6hnQQ9wby8Wfp-66" value="&lt;u&gt;CÓDIGO&lt;/u&gt;" style="ellipse;whiteSpace=wrap;html=1;" parent="1" vertex="1">
          <mxGeometry x="720" y="830" width="80" height="50" as="geometry" />
        </mxCell>
        <mxCell id="TxgCbAa6hnQQ9wby8Wfp-67" value="" style="endArrow=none;html=1;rounded=0;" parent="1" source="TxgCbAa6hnQQ9wby8Wfp-66" target="TxgCbAa6hnQQ9wby8Wfp-38" edge="1">
          <mxGeometry width="50" height="50" relative="1" as="geometry">
            <mxPoint x="640" y="730" as="sourcePoint" />
            <mxPoint x="690" y="680" as="targetPoint" />
          </mxGeometry>
        </mxCell>
        <mxCell id="TxgCbAa6hnQQ9wby8Wfp-68" value="A/P ENTRADA" style="rounded=0;whiteSpace=wrap;html=1;" parent="1" vertex="1">
          <mxGeometry x="1350" y="525" width="120" height="60" as="geometry" />
        </mxCell>
        <mxCell id="TxgCbAa6hnQQ9wby8Wfp-70" value="VOLAR" style="rhombus;whiteSpace=wrap;html=1;" parent="1" vertex="1">
          <mxGeometry x="1060.47" y="705" width="90" height="90" as="geometry" />
        </mxCell>
        <mxCell id="TxgCbAa6hnQQ9wby8Wfp-71" value="" style="endArrow=none;html=1;rounded=0;" parent="1" source="TxgCbAa6hnQQ9wby8Wfp-38" target="TxgCbAa6hnQQ9wby8Wfp-70" edge="1">
          <mxGeometry width="50" height="50" relative="1" as="geometry">
            <mxPoint x="960" y="700" as="sourcePoint" />
            <mxPoint x="1010" y="650" as="targetPoint" />
          </mxGeometry>
        </mxCell>
        <mxCell id="TxgCbAa6hnQQ9wby8Wfp-73" value="1:N" style="edgeLabel;html=1;align=center;verticalAlign=middle;resizable=0;points=[];" parent="TxgCbAa6hnQQ9wby8Wfp-71" vertex="1" connectable="0">
          <mxGeometry x="0.7508" relative="1" as="geometry">
            <mxPoint x="-7" as="offset" />
          </mxGeometry>
        </mxCell>
        <mxCell id="TxgCbAa6hnQQ9wby8Wfp-72" value="" style="endArrow=none;html=1;rounded=0;" parent="1" source="TxgCbAa6hnQQ9wby8Wfp-70" target="TxgCbAa6hnQQ9wby8Wfp-68" edge="1">
          <mxGeometry width="50" height="50" relative="1" as="geometry">
            <mxPoint x="1058.18" y="700" as="sourcePoint" />
            <mxPoint x="1108.18" y="650" as="targetPoint" />
          </mxGeometry>
        </mxCell>
        <mxCell id="TxgCbAa6hnQQ9wby8Wfp-74" value="1:1" style="edgeLabel;html=1;align=center;verticalAlign=middle;resizable=0;points=[];" parent="TxgCbAa6hnQQ9wby8Wfp-72" vertex="1" connectable="0">
          <mxGeometry x="-0.8183" y="1" relative="1" as="geometry">
            <mxPoint x="7" y="-1" as="offset" />
          </mxGeometry>
        </mxCell>
        <mxCell id="TxgCbAa6hnQQ9wby8Wfp-75" value="&lt;u&gt;Código_IATA&lt;/u&gt;" style="ellipse;whiteSpace=wrap;html=1;" parent="1" vertex="1">
          <mxGeometry x="1331.82" y="435" width="108.18" height="60" as="geometry" />
        </mxCell>
        <mxCell id="TxgCbAa6hnQQ9wby8Wfp-76" value="COORDENADAS&lt;div&gt;GEOGRÁFICAS&lt;/div&gt;&lt;div&gt;GPS&lt;/div&gt;" style="ellipse;whiteSpace=wrap;html=1;" parent="1" vertex="1">
          <mxGeometry x="1470" y="435" width="128" height="80" as="geometry" />
        </mxCell>
        <mxCell id="TxgCbAa6hnQQ9wby8Wfp-77" value="FRANJA&lt;div&gt;HORARIA&lt;/div&gt;" style="ellipse;whiteSpace=wrap;html=1;" parent="1" vertex="1">
          <mxGeometry x="1500" y="545" width="80" height="50" as="geometry" />
        </mxCell>
        <mxCell id="TxgCbAa6hnQQ9wby8Wfp-78" value="PAÍS" style="ellipse;whiteSpace=wrap;html=1;" parent="1" vertex="1">
          <mxGeometry x="1470" y="615" width="80" height="50" as="geometry" />
        </mxCell>
        <mxCell id="TxgCbAa6hnQQ9wby8Wfp-79" value="" style="endArrow=none;html=1;rounded=0;" parent="1" source="TxgCbAa6hnQQ9wby8Wfp-68" target="TxgCbAa6hnQQ9wby8Wfp-75" edge="1">
          <mxGeometry width="50" height="50" relative="1" as="geometry">
            <mxPoint x="1160" y="565" as="sourcePoint" />
            <mxPoint x="1210" y="515" as="targetPoint" />
          </mxGeometry>
        </mxCell>
        <mxCell id="TxgCbAa6hnQQ9wby8Wfp-80" value="" style="endArrow=none;html=1;rounded=0;" parent="1" source="TxgCbAa6hnQQ9wby8Wfp-68" target="TxgCbAa6hnQQ9wby8Wfp-77" edge="1">
          <mxGeometry width="50" height="50" relative="1" as="geometry">
            <mxPoint x="1416" y="535" as="sourcePoint" />
            <mxPoint x="1413" y="505" as="targetPoint" />
          </mxGeometry>
        </mxCell>
        <mxCell id="TxgCbAa6hnQQ9wby8Wfp-81" value="" style="endArrow=none;html=1;rounded=0;" parent="1" source="TxgCbAa6hnQQ9wby8Wfp-68" target="TxgCbAa6hnQQ9wby8Wfp-76" edge="1">
          <mxGeometry width="50" height="50" relative="1" as="geometry">
            <mxPoint x="1426" y="545" as="sourcePoint" />
            <mxPoint x="1423" y="515" as="targetPoint" />
          </mxGeometry>
        </mxCell>
        <mxCell id="TxgCbAa6hnQQ9wby8Wfp-82" value="" style="endArrow=none;html=1;rounded=0;" parent="1" source="TxgCbAa6hnQQ9wby8Wfp-78" target="TxgCbAa6hnQQ9wby8Wfp-68" edge="1">
          <mxGeometry width="50" height="50" relative="1" as="geometry">
            <mxPoint x="1436" y="555" as="sourcePoint" />
            <mxPoint x="1433" y="525" as="targetPoint" />
          </mxGeometry>
        </mxCell>
        <mxCell id="TxgCbAa6hnQQ9wby8Wfp-83" value="TRIPULACIÓN" style="rounded=0;whiteSpace=wrap;html=1;" parent="1" vertex="1">
          <mxGeometry x="10" y="723" width="120" height="60" as="geometry" />
        </mxCell>
        <mxCell id="TxgCbAa6hnQQ9wby8Wfp-98" value="NOMBRE" style="ellipse;whiteSpace=wrap;html=1;dashed=1;" parent="1" vertex="1">
          <mxGeometry x="90" y="648" width="100" height="60" as="geometry" />
        </mxCell>
        <mxCell id="TxgCbAa6hnQQ9wby8Wfp-99" value="DIRECCIÓN" style="ellipse;whiteSpace=wrap;html=1;dashed=1;" parent="1" vertex="1">
          <mxGeometry x="-169.9999999999999" y="830" width="100" height="60" as="geometry" />
        </mxCell>
        <mxCell id="TxgCbAa6hnQQ9wby8Wfp-100" value="FECHA" style="ellipse;whiteSpace=wrap;html=1;" parent="1" vertex="1">
          <mxGeometry x="120" y="793" width="100" height="60" as="geometry" />
        </mxCell>
        <mxCell id="TxgCbAa6hnQQ9wby8Wfp-103" value="" style="group" parent="1" vertex="1" connectable="0">
          <mxGeometry x="-62.8599999999999" y="835" width="116.66999999999996" height="70" as="geometry" />
        </mxCell>
        <mxCell id="TxgCbAa6hnQQ9wby8Wfp-102" value="CLASE" style="ellipse;whiteSpace=wrap;html=1;" parent="TxgCbAa6hnQQ9wby8Wfp-103" vertex="1">
          <mxGeometry width="116.67" height="70" as="geometry" />
        </mxCell>
        <mxCell id="TxgCbAa6hnQQ9wby8Wfp-93" value="TELÉFONO&lt;span style=&quot;color: rgba(0, 0, 0, 0); font-family: monospace; font-size: 0px; text-align: start; text-wrap: nowrap;&quot;&gt;%3CmxGraphModel%3E%3Croot%3E%3CmxCell%20id%3D%220%22%2F%3E%3CmxCell%20id%3D%221%22%20parent%3D%220%22%2F%3E%3CmxCell%20id%3D%222%22%20value%3D%22CLASE%22%20style%3D%22ellipse%3BwhiteSpace%3Dwrap%3Bhtml%3D1%3B%22%20vertex%3D%221%22%20parent%3D%221%22%3E%3CmxGeometry%20x%3D%22260%22%20y%3D%221020%22%20width%3D%22100%22%20height%3D%2260%22%20as%3D%22geometry%22%2F%3E%3C%2FmxCell%3E%3C%2Froot%3E%3C%2FmxGraphModel%3E&lt;/span&gt;" style="ellipse;whiteSpace=wrap;html=1;" parent="TxgCbAa6hnQQ9wby8Wfp-103" vertex="1">
          <mxGeometry x="8.340000000000032" y="5" width="100" height="60" as="geometry" />
        </mxCell>
        <mxCell id="TxgCbAa6hnQQ9wby8Wfp-117" value="&lt;span style=&quot;font-size: 11px;&quot;&gt;AUTORIZACIÓN&lt;/span&gt;" style="ellipse;whiteSpace=wrap;html=1;dashed=1;" parent="1" vertex="1">
          <mxGeometry x="1360" y="635" width="96" height="60" as="geometry" />
        </mxCell>
        <mxCell id="TxgCbAa6hnQQ9wby8Wfp-118" value="" style="endArrow=none;html=1;rounded=0;" parent="1" source="TxgCbAa6hnQQ9wby8Wfp-117" target="TxgCbAa6hnQQ9wby8Wfp-68" edge="1">
          <mxGeometry width="50" height="50" relative="1" as="geometry">
            <mxPoint x="1100" y="805" as="sourcePoint" />
            <mxPoint x="1150" y="755" as="targetPoint" />
          </mxGeometry>
        </mxCell>
        <mxCell id="TxgCbAa6hnQQ9wby8Wfp-122" value="" style="endArrow=none;html=1;rounded=0;" parent="1" source="dHpdYgMEqJzql0knfR7l-53" target="TxgCbAa6hnQQ9wby8Wfp-22" edge="1">
          <mxGeometry width="50" height="50" relative="1" as="geometry">
            <mxPoint x="450" y="347.486767526663" as="sourcePoint" />
            <mxPoint x="390" y="150" as="targetPoint" />
          </mxGeometry>
        </mxCell>
        <mxCell id="TxgCbAa6hnQQ9wby8Wfp-124" value="AIGNA" style="rhombus;whiteSpace=wrap;html=1;" parent="1" vertex="1">
          <mxGeometry x="420" y="713" width="80" height="80" as="geometry" />
        </mxCell>
        <mxCell id="TxgCbAa6hnQQ9wby8Wfp-129" value="" style="endArrow=none;html=1;rounded=0;" parent="1" source="TxgCbAa6hnQQ9wby8Wfp-124" target="TxgCbAa6hnQQ9wby8Wfp-83" edge="1">
          <mxGeometry width="50" height="50" relative="1" as="geometry">
            <mxPoint x="610" y="813" as="sourcePoint" />
            <mxPoint x="660" y="763" as="targetPoint" />
          </mxGeometry>
        </mxCell>
        <mxCell id="TxgCbAa6hnQQ9wby8Wfp-133" value="1:N" style="edgeLabel;html=1;align=center;verticalAlign=middle;resizable=0;points=[];" parent="TxgCbAa6hnQQ9wby8Wfp-129" vertex="1" connectable="0">
          <mxGeometry x="-0.5291" relative="1" as="geometry">
            <mxPoint x="38" as="offset" />
          </mxGeometry>
        </mxCell>
        <mxCell id="TxgCbAa6hnQQ9wby8Wfp-134" value="REQUISITOS" style="ellipse;whiteSpace=wrap;html=1;dashed=1;" parent="1" vertex="1">
          <mxGeometry x="409.75" y="825" width="100.5" height="55" as="geometry" />
        </mxCell>
        <mxCell id="TxgCbAa6hnQQ9wby8Wfp-146" value="" style="endArrow=none;html=1;rounded=0;" parent="1" source="TxgCbAa6hnQQ9wby8Wfp-124" target="TxgCbAa6hnQQ9wby8Wfp-134" edge="1">
          <mxGeometry width="50" height="50" relative="1" as="geometry">
            <mxPoint x="490" y="703" as="sourcePoint" />
            <mxPoint x="540" y="653" as="targetPoint" />
          </mxGeometry>
        </mxCell>
        <mxCell id="7irbgnfPrgWFY5c8C6Gp-1" value="&lt;u&gt;NIF&lt;/u&gt;" style="ellipse;whiteSpace=wrap;html=1;" parent="1" vertex="1">
          <mxGeometry x="20" y="608" width="80" height="50" as="geometry" />
        </mxCell>
        <mxCell id="7irbgnfPrgWFY5c8C6Gp-8" value="" style="endArrow=none;html=1;rounded=0;" parent="1" source="dHpdYgMEqJzql0knfR7l-53" target="TxgCbAa6hnQQ9wby8Wfp-24" edge="1">
          <mxGeometry width="50" height="50" relative="1" as="geometry">
            <mxPoint x="490.66488257232686" y="320" as="sourcePoint" />
            <mxPoint x="700" y="645" as="targetPoint" />
          </mxGeometry>
        </mxCell>
        <mxCell id="M6KtSAmYLifM6GgC22hR-26" value="" style="endArrow=none;html=1;rounded=0;" parent="1" source="TxgCbAa6hnQQ9wby8Wfp-83" target="TxgCbAa6hnQQ9wby8Wfp-93" edge="1">
          <mxGeometry width="50" height="50" relative="1" as="geometry">
            <mxPoint x="-199.12938413941538" y="803" as="sourcePoint" />
            <mxPoint x="-30" y="783" as="targetPoint" />
          </mxGeometry>
        </mxCell>
        <mxCell id="M6KtSAmYLifM6GgC22hR-28" value="" style="endArrow=none;html=1;rounded=0;" parent="1" source="TxgCbAa6hnQQ9wby8Wfp-99" target="TxgCbAa6hnQQ9wby8Wfp-83" edge="1">
          <mxGeometry width="50" height="50" relative="1" as="geometry">
            <mxPoint x="-80" y="833" as="sourcePoint" />
            <mxPoint x="-266.66666666666697" y="803" as="targetPoint" />
          </mxGeometry>
        </mxCell>
        <mxCell id="M6KtSAmYLifM6GgC22hR-29" value="" style="endArrow=none;html=1;rounded=0;" parent="1" source="TxgCbAa6hnQQ9wby8Wfp-83" target="TxgCbAa6hnQQ9wby8Wfp-100" edge="1">
          <mxGeometry width="50" height="50" relative="1" as="geometry">
            <mxPoint x="-300" y="795.1052631578946" as="sourcePoint" />
            <mxPoint x="-30" y="783" as="targetPoint" />
          </mxGeometry>
        </mxCell>
        <mxCell id="M6KtSAmYLifM6GgC22hR-32" value="" style="endArrow=none;html=1;rounded=0;" parent="1" source="TxgCbAa6hnQQ9wby8Wfp-83" target="7irbgnfPrgWFY5c8C6Gp-1" edge="1">
          <mxGeometry width="50" height="50" relative="1" as="geometry">
            <mxPoint x="-300" y="743" as="sourcePoint" />
            <mxPoint x="-420" y="693" as="targetPoint" />
          </mxGeometry>
        </mxCell>
        <mxCell id="M6KtSAmYLifM6GgC22hR-33" value="" style="endArrow=none;html=1;rounded=0;" parent="1" source="TxgCbAa6hnQQ9wby8Wfp-83" target="TxgCbAa6hnQQ9wby8Wfp-98" edge="1">
          <mxGeometry width="50" height="50" relative="1" as="geometry">
            <mxPoint x="-247.5" y="743" as="sourcePoint" />
            <mxPoint x="-30" y="783" as="targetPoint" />
          </mxGeometry>
        </mxCell>
        <mxCell id="M6KtSAmYLifM6GgC22hR-43" value="CATEGORIA" style="ellipse;whiteSpace=wrap;html=1;dashed=1;" parent="1" vertex="1">
          <mxGeometry x="-99.99999999999989" y="565.72" width="100" height="60" as="geometry" />
        </mxCell>
        <mxCell id="M6KtSAmYLifM6GgC22hR-44" value="" style="endArrow=none;html=1;rounded=0;" parent="1" source="M6KtSAmYLifM6GgC22hR-43" target="TxgCbAa6hnQQ9wby8Wfp-83" edge="1">
          <mxGeometry width="50" height="50" relative="1" as="geometry">
            <mxPoint x="630" y="693" as="sourcePoint" />
            <mxPoint x="680" y="643" as="targetPoint" />
          </mxGeometry>
        </mxCell>
        <mxCell id="M6KtSAmYLifM6GgC22hR-45" value="COPILOTO" style="ellipse;whiteSpace=wrap;html=1;" parent="1" vertex="1">
          <mxGeometry x="-150" y="500" width="80" height="50" as="geometry" />
        </mxCell>
        <mxCell id="M6KtSAmYLifM6GgC22hR-46" value="JEFE CABINA" style="ellipse;whiteSpace=wrap;html=1;" parent="1" vertex="1">
          <mxGeometry x="-230" y="570.72" width="90" height="56.25" as="geometry" />
        </mxCell>
        <mxCell id="M6KtSAmYLifM6GgC22hR-47" value="AZAFATO/A" style="ellipse;whiteSpace=wrap;html=1;" parent="1" vertex="1">
          <mxGeometry x="-180" y="625.72" width="80" height="50" as="geometry" />
        </mxCell>
        <mxCell id="M6KtSAmYLifM6GgC22hR-48" value="PILOTO" style="ellipse;whiteSpace=wrap;html=1;" parent="1" vertex="1">
          <mxGeometry x="-240" y="510" width="80" height="50" as="geometry" />
        </mxCell>
        <mxCell id="M6KtSAmYLifM6GgC22hR-49" value="" style="endArrow=none;html=1;rounded=0;" parent="1" source="M6KtSAmYLifM6GgC22hR-47" target="M6KtSAmYLifM6GgC22hR-43" edge="1">
          <mxGeometry width="50" height="50" relative="1" as="geometry">
            <mxPoint x="-20" y="590" as="sourcePoint" />
            <mxPoint x="50" y="590" as="targetPoint" />
          </mxGeometry>
        </mxCell>
        <mxCell id="M6KtSAmYLifM6GgC22hR-50" value="" style="endArrow=none;html=1;rounded=0;" parent="1" source="M6KtSAmYLifM6GgC22hR-46" target="M6KtSAmYLifM6GgC22hR-43" edge="1">
          <mxGeometry width="50" height="50" relative="1" as="geometry">
            <mxPoint x="-20" y="590" as="sourcePoint" />
            <mxPoint x="30" y="540" as="targetPoint" />
          </mxGeometry>
        </mxCell>
        <mxCell id="M6KtSAmYLifM6GgC22hR-51" value="" style="endArrow=none;html=1;rounded=0;" parent="1" source="M6KtSAmYLifM6GgC22hR-48" target="M6KtSAmYLifM6GgC22hR-43" edge="1">
          <mxGeometry width="50" height="50" relative="1" as="geometry">
            <mxPoint x="-20" y="590" as="sourcePoint" />
            <mxPoint x="30" y="540" as="targetPoint" />
          </mxGeometry>
        </mxCell>
        <mxCell id="M6KtSAmYLifM6GgC22hR-52" value="" style="endArrow=none;html=1;rounded=0;" parent="1" source="M6KtSAmYLifM6GgC22hR-45" target="M6KtSAmYLifM6GgC22hR-43" edge="1">
          <mxGeometry width="50" height="50" relative="1" as="geometry">
            <mxPoint x="-20" y="590" as="sourcePoint" />
            <mxPoint x="30" y="540" as="targetPoint" />
          </mxGeometry>
        </mxCell>
        <mxCell id="M6KtSAmYLifM6GgC22hR-53" value="CAT 1" style="ellipse;whiteSpace=wrap;html=1;" parent="1" vertex="1">
          <mxGeometry x="1290" y="695" width="80" height="50" as="geometry" />
        </mxCell>
        <mxCell id="M6KtSAmYLifM6GgC22hR-54" value="CAT 3" style="ellipse;whiteSpace=wrap;html=1;" parent="1" vertex="1">
          <mxGeometry x="1470" y="685" width="80" height="50" as="geometry" />
        </mxCell>
        <mxCell id="M6KtSAmYLifM6GgC22hR-55" value="CAT 2" style="ellipse;whiteSpace=wrap;html=1;" parent="1" vertex="1">
          <mxGeometry x="1390" y="717.5" width="80" height="50" as="geometry" />
        </mxCell>
        <mxCell id="M6KtSAmYLifM6GgC22hR-56" value="" style="endArrow=none;html=1;rounded=0;" parent="1" source="M6KtSAmYLifM6GgC22hR-54" target="TxgCbAa6hnQQ9wby8Wfp-117" edge="1">
          <mxGeometry width="50" height="50" relative="1" as="geometry">
            <mxPoint x="1290" y="605" as="sourcePoint" />
            <mxPoint x="1340" y="555" as="targetPoint" />
          </mxGeometry>
        </mxCell>
        <mxCell id="M6KtSAmYLifM6GgC22hR-57" value="" style="endArrow=none;html=1;rounded=0;" parent="1" source="M6KtSAmYLifM6GgC22hR-55" target="TxgCbAa6hnQQ9wby8Wfp-117" edge="1">
          <mxGeometry width="50" height="50" relative="1" as="geometry">
            <mxPoint x="1290" y="605" as="sourcePoint" />
            <mxPoint x="1340" y="555" as="targetPoint" />
          </mxGeometry>
        </mxCell>
        <mxCell id="M6KtSAmYLifM6GgC22hR-58" value="" style="endArrow=none;html=1;rounded=0;" parent="1" source="M6KtSAmYLifM6GgC22hR-53" target="TxgCbAa6hnQQ9wby8Wfp-117" edge="1">
          <mxGeometry width="50" height="50" relative="1" as="geometry">
            <mxPoint x="1290" y="605" as="sourcePoint" />
            <mxPoint x="1340" y="555" as="targetPoint" />
          </mxGeometry>
        </mxCell>
        <mxCell id="M6KtSAmYLifM6GgC22hR-65" value="&lt;h1 style=&quot;margin-top: 0px; font-size: 16px;&quot;&gt;&lt;span style=&quot;font-weight: 400; text-align: center; text-wrap: nowrap;&quot;&gt;En este ejercicio he realizado un diagrama según los datos que me han dado y me pedían, he puesto a todos tripulantes dentro de tripulación ya que no especificaba su separación y tanto licencias y autorización&amp;nbsp;&lt;/span&gt;&lt;span style=&quot;font-weight: 400; text-align: center; text-wrap-mode: nowrap; background-color: initial;&quot;&gt;hacen en&lt;/span&gt;&lt;/h1&gt;&lt;h1 style=&quot;margin-top: 0px; font-size: 16px;&quot;&gt;&lt;span style=&quot;font-weight: 400; text-align: center; text-wrap-mode: nowrap; background-color: initial;&quot;&gt;toda la tripulación. He realizado una relación entre&amp;nbsp;&lt;/span&gt;&lt;span style=&quot;background-color: initial; text-wrap: nowrap; font-weight: 400; text-align: center;&quot;&gt;tripulación y el avión aerolínea ya que es necesario para que cada avión pueda volar&lt;/span&gt;&lt;span style=&quot;background-color: initial; text-wrap: nowrap; font-weight: 400; text-align: center;&quot;&gt;, en&amp;nbsp;&lt;/span&gt;&lt;span style=&quot;background-color: initial; text-wrap: nowrap; font-weight: 400; text-align: center;&quot;&gt;esta relación he puesto el atributo &quot;a lo largo del tiempo&quot; porque es lo que&amp;nbsp;&lt;/span&gt;&lt;/h1&gt;&lt;h1 style=&quot;margin-top: 0px; font-size: 16px;&quot;&gt;&lt;span style=&quot;background-color: initial; text-wrap: nowrap; font-weight: 400; text-align: center;&quot;&gt;comparten&amp;nbsp;&lt;/span&gt;&lt;span style=&quot;background-color: initial; text-wrap: nowrap; font-weight: 400; text-align: center;&quot;&gt;las dos&amp;nbsp;&lt;/span&gt;&lt;span style=&quot;background-color: initial; text-wrap: nowrap; font-weight: 400; text-align: center;&quot;&gt;identidades, y en línea aérea se agrupan los dos aviones&lt;/span&gt;&lt;span style=&quot;background-color: initial; text-wrap: nowrap; font-weight: 400; text-align: center;&quot;&gt;. Una vez que la tripulación está asignada ya se puede realizar el&lt;/span&gt;&lt;span style=&quot;background-color: initial; text-wrap: nowrap; font-weight: 400; text-align: center;&quot;&gt;&amp;nbsp;vuelo. La etiqueta v&lt;/span&gt;&lt;span style=&quot;background-color: initial; text-wrap: nowrap; font-weight: 400; text-align: center;&quot;&gt;uelo se relaciona con el avión dependiendo del atributo del&lt;/span&gt;&lt;/h1&gt;&lt;h1 style=&quot;margin-top: 0px; font-size: 16px;&quot;&gt;&lt;span style=&quot;background-color: initial; text-wrap: nowrap; font-weight: 400; text-align: center;&quot;&gt;combustible mínimo&lt;/span&gt;&lt;span style=&quot;background-color: initial; text-wrap: nowrap; text-align: center; font-weight: normal;&quot;&gt;. Luego el vuelo se relaciona con los A/P del que despega y el de que aterriza.&lt;/span&gt;&lt;/h1&gt;" style="text;html=1;whiteSpace=wrap;overflow=hidden;rounded=0;" parent="1" vertex="1">
          <mxGeometry x="-110" y="110" width="1570" height="170" as="geometry" />
        </mxCell>
        <mxCell id="M6KtSAmYLifM6GgC22hR-68" value="FUEL MIN" style="ellipse;whiteSpace=wrap;html=1;" parent="1" vertex="1">
          <mxGeometry x="840" y="455" width="80" height="50" as="geometry" />
        </mxCell>
        <mxCell id="M6KtSAmYLifM6GgC22hR-69" value="" style="endArrow=none;html=1;rounded=0;" parent="1" source="M6KtSAmYLifM6GgC22hR-68" target="TxgCbAa6hnQQ9wby8Wfp-37" edge="1">
          <mxGeometry width="50" height="50" relative="1" as="geometry">
            <mxPoint x="490" y="540" as="sourcePoint" />
            <mxPoint x="540" y="490" as="targetPoint" />
          </mxGeometry>
        </mxCell>
        <mxCell id="dHpdYgMEqJzql0knfR7l-2" value="" style="endArrow=none;html=1;rounded=0;" parent="1" source="TxgCbAa6hnQQ9wby8Wfp-124" target="TxgCbAa6hnQQ9wby8Wfp-38" edge="1">
          <mxGeometry width="50" height="50" relative="1" as="geometry">
            <mxPoint x="80" y="850" as="sourcePoint" />
            <mxPoint x="130" y="800" as="targetPoint" />
          </mxGeometry>
        </mxCell>
        <mxCell id="dHpdYgMEqJzql0knfR7l-3" value="1:N" style="edgeLabel;html=1;align=center;verticalAlign=middle;resizable=0;points=[];" parent="dHpdYgMEqJzql0knfR7l-2" vertex="1" connectable="0">
          <mxGeometry x="-0.7543" y="1" relative="1" as="geometry">
            <mxPoint x="-8" as="offset" />
          </mxGeometry>
        </mxCell>
        <mxCell id="dHpdYgMEqJzql0knfR7l-4" value="La tripulación min. 4 personas" style="text;html=1;align=center;verticalAlign=middle;whiteSpace=wrap;rounded=0;" parent="1" vertex="1">
          <mxGeometry x="250" y="705" width="90" height="45" as="geometry" />
        </mxCell>
        <mxCell id="dHpdYgMEqJzql0knfR7l-6" value="&lt;font style=&quot;font-size: 11px;&quot;&gt;COMPATIBLE&lt;/font&gt;" style="rhombus;whiteSpace=wrap;html=1;" parent="1" vertex="1">
          <mxGeometry x="-362.76" y="713" width="80" height="80" as="geometry" />
        </mxCell>
        <mxCell id="dHpdYgMEqJzql0knfR7l-7" value="" style="endArrow=none;html=1;rounded=0;exitX=0.5;exitY=1;exitDx=0;exitDy=0;" parent="1" source="dHpdYgMEqJzql0knfR7l-6" edge="1">
          <mxGeometry width="50" height="50" relative="1" as="geometry">
            <mxPoint x="-302.76" y="768.5" as="sourcePoint" />
            <mxPoint x="10" y="753" as="targetPoint" />
            <Array as="points">
              <mxPoint x="-242.76" y="793" />
              <mxPoint x="-242.76" y="753" />
            </Array>
          </mxGeometry>
        </mxCell>
        <mxCell id="dHpdYgMEqJzql0knfR7l-10" value="0:N" style="edgeLabel;html=1;align=center;verticalAlign=middle;resizable=0;points=[];" parent="dHpdYgMEqJzql0knfR7l-7" vertex="1" connectable="0">
          <mxGeometry x="-0.8102" y="1" relative="1" as="geometry">
            <mxPoint as="offset" />
          </mxGeometry>
        </mxCell>
        <mxCell id="dHpdYgMEqJzql0knfR7l-8" value="" style="endArrow=none;html=1;rounded=0;exitX=0.5;exitY=0;exitDx=0;exitDy=0;" parent="1" source="dHpdYgMEqJzql0knfR7l-6" target="TxgCbAa6hnQQ9wby8Wfp-83" edge="1">
          <mxGeometry width="50" height="50" relative="1" as="geometry">
            <mxPoint x="-42.76" y="743" as="sourcePoint" />
            <mxPoint x="10" y="748.9592019439826" as="targetPoint" />
            <Array as="points">
              <mxPoint x="-242.76" y="713" />
              <mxPoint x="-242.76" y="753" />
            </Array>
          </mxGeometry>
        </mxCell>
        <mxCell id="dHpdYgMEqJzql0knfR7l-9" value="0:N" style="edgeLabel;html=1;align=center;verticalAlign=middle;resizable=0;points=[];" parent="dHpdYgMEqJzql0knfR7l-8" vertex="1" connectable="0">
          <mxGeometry x="-0.8202" relative="1" as="geometry">
            <mxPoint as="offset" />
          </mxGeometry>
        </mxCell>
        <mxCell id="dHpdYgMEqJzql0knfR7l-11" value="" style="endArrow=none;html=1;rounded=0;" parent="1" source="dHpdYgMEqJzql0knfR7l-6" target="dHpdYgMEqJzql0knfR7l-12" edge="1">
          <mxGeometry width="50" height="50" relative="1" as="geometry">
            <mxPoint x="-330" y="768" as="sourcePoint" />
            <mxPoint x="-410" y="753" as="targetPoint" />
          </mxGeometry>
        </mxCell>
        <mxCell id="dHpdYgMEqJzql0knfR7l-12" value="SI/NO" style="ellipse;whiteSpace=wrap;html=1;dashed=1;" parent="1" vertex="1">
          <mxGeometry x="-473" y="733" width="60" height="40" as="geometry" />
        </mxCell>
        <mxCell id="dHpdYgMEqJzql0knfR7l-13" value="&lt;font style=&quot;font-size: 11px;&quot;&gt;AUTORIZACIÓN&lt;/font&gt;" style="ellipse;whiteSpace=wrap;html=1;dashed=1;" parent="1" vertex="1">
          <mxGeometry x="70" y="880" width="96" height="60" as="geometry" />
        </mxCell>
        <mxCell id="dHpdYgMEqJzql0knfR7l-14" value="CAT 1" style="ellipse;whiteSpace=wrap;html=1;" parent="1" vertex="1">
          <mxGeometry y="940" width="80" height="50" as="geometry" />
        </mxCell>
        <mxCell id="dHpdYgMEqJzql0knfR7l-15" value="CAT 3" style="ellipse;whiteSpace=wrap;html=1;" parent="1" vertex="1">
          <mxGeometry x="180" y="930" width="80" height="50" as="geometry" />
        </mxCell>
        <mxCell id="dHpdYgMEqJzql0knfR7l-16" value="CAT 2" style="ellipse;whiteSpace=wrap;html=1;" parent="1" vertex="1">
          <mxGeometry x="100" y="962.5" width="80" height="50" as="geometry" />
        </mxCell>
        <mxCell id="dHpdYgMEqJzql0knfR7l-17" value="" style="endArrow=none;html=1;rounded=0;" parent="1" source="dHpdYgMEqJzql0knfR7l-15" target="dHpdYgMEqJzql0knfR7l-13" edge="1">
          <mxGeometry width="50" height="50" relative="1" as="geometry">
            <mxPoint y="850" as="sourcePoint" />
            <mxPoint x="50" y="800" as="targetPoint" />
          </mxGeometry>
        </mxCell>
        <mxCell id="dHpdYgMEqJzql0knfR7l-18" value="" style="endArrow=none;html=1;rounded=0;" parent="1" source="dHpdYgMEqJzql0knfR7l-16" target="dHpdYgMEqJzql0knfR7l-13" edge="1">
          <mxGeometry width="50" height="50" relative="1" as="geometry">
            <mxPoint y="850" as="sourcePoint" />
            <mxPoint x="50" y="800" as="targetPoint" />
          </mxGeometry>
        </mxCell>
        <mxCell id="dHpdYgMEqJzql0knfR7l-19" value="" style="endArrow=none;html=1;rounded=0;" parent="1" source="dHpdYgMEqJzql0knfR7l-14" target="dHpdYgMEqJzql0knfR7l-13" edge="1">
          <mxGeometry width="50" height="50" relative="1" as="geometry">
            <mxPoint y="850" as="sourcePoint" />
            <mxPoint x="50" y="800" as="targetPoint" />
          </mxGeometry>
        </mxCell>
        <mxCell id="dHpdYgMEqJzql0knfR7l-20" value="" style="endArrow=none;html=1;rounded=0;" parent="1" source="dHpdYgMEqJzql0knfR7l-13" target="TxgCbAa6hnQQ9wby8Wfp-83" edge="1">
          <mxGeometry width="50" height="50" relative="1" as="geometry">
            <mxPoint x="130" y="790" as="sourcePoint" />
            <mxPoint x="180" y="740" as="targetPoint" />
          </mxGeometry>
        </mxCell>
        <mxCell id="dHpdYgMEqJzql0knfR7l-23" value="&lt;u&gt;CÓDIGO&lt;/u&gt;" style="ellipse;whiteSpace=wrap;html=1;" parent="1" vertex="1">
          <mxGeometry x="32.5" y="455" width="75" height="45" as="geometry" />
        </mxCell>
        <mxCell id="dHpdYgMEqJzql0knfR7l-26" value="" style="endArrow=none;html=1;rounded=0;" parent="1" source="dHpdYgMEqJzql0knfR7l-23" target="dHpdYgMEqJzql0knfR7l-53" edge="1">
          <mxGeometry width="50" height="50" relative="1" as="geometry">
            <mxPoint x="280" y="740" as="sourcePoint" />
            <mxPoint x="128.68363534537002" y="462.28470016847336" as="targetPoint" />
          </mxGeometry>
        </mxCell>
        <mxCell id="dHpdYgMEqJzql0knfR7l-27" value="LICENCIA" style="ellipse;whiteSpace=wrap;html=1;" parent="1" vertex="1">
          <mxGeometry x="378" y="905" width="82" height="55" as="geometry" />
        </mxCell>
        <mxCell id="dHpdYgMEqJzql0knfR7l-28" value="FECHA" style="ellipse;whiteSpace=wrap;html=1;dashed=1;" parent="1" vertex="1">
          <mxGeometry x="483" y="905" width="77" height="55" as="geometry" />
        </mxCell>
        <mxCell id="dHpdYgMEqJzql0knfR7l-29" value="" style="endArrow=none;html=1;rounded=0;" parent="1" source="dHpdYgMEqJzql0knfR7l-27" target="TxgCbAa6hnQQ9wby8Wfp-134" edge="1">
          <mxGeometry width="50" height="50" relative="1" as="geometry">
            <mxPoint x="460" y="740" as="sourcePoint" />
            <mxPoint x="510" y="690" as="targetPoint" />
          </mxGeometry>
        </mxCell>
        <mxCell id="dHpdYgMEqJzql0knfR7l-30" value="" style="endArrow=none;html=1;rounded=0;" parent="1" source="TxgCbAa6hnQQ9wby8Wfp-134" target="dHpdYgMEqJzql0knfR7l-28" edge="1">
          <mxGeometry width="50" height="50" relative="1" as="geometry">
            <mxPoint x="460" y="740" as="sourcePoint" />
            <mxPoint x="510" y="690" as="targetPoint" />
          </mxGeometry>
        </mxCell>
        <mxCell id="dHpdYgMEqJzql0knfR7l-31" value="A/P SALIDA" style="rounded=0;whiteSpace=wrap;html=1;" parent="1" vertex="1">
          <mxGeometry x="1360" y="890" width="120" height="60" as="geometry" />
        </mxCell>
        <mxCell id="dHpdYgMEqJzql0knfR7l-32" value="&lt;u&gt;Código_IATA&lt;/u&gt;" style="ellipse;whiteSpace=wrap;html=1;" parent="1" vertex="1">
          <mxGeometry x="1341.82" y="800" width="108.18" height="60" as="geometry" />
        </mxCell>
        <mxCell id="dHpdYgMEqJzql0knfR7l-33" value="COORDENADAS&lt;div&gt;GEOGRÁFICAS&lt;/div&gt;&lt;div&gt;GPS&lt;/div&gt;" style="ellipse;whiteSpace=wrap;html=1;" parent="1" vertex="1">
          <mxGeometry x="1480" y="800" width="128" height="80" as="geometry" />
        </mxCell>
        <mxCell id="dHpdYgMEqJzql0knfR7l-34" value="FRANJA&lt;div&gt;HORARIA&lt;/div&gt;" style="ellipse;whiteSpace=wrap;html=1;" parent="1" vertex="1">
          <mxGeometry x="1510" y="910" width="80" height="50" as="geometry" />
        </mxCell>
        <mxCell id="dHpdYgMEqJzql0knfR7l-35" value="PAÍS" style="ellipse;whiteSpace=wrap;html=1;" parent="1" vertex="1">
          <mxGeometry x="1480" y="980" width="80" height="50" as="geometry" />
        </mxCell>
        <mxCell id="dHpdYgMEqJzql0knfR7l-36" value="" style="endArrow=none;html=1;rounded=0;" parent="1" source="dHpdYgMEqJzql0knfR7l-31" target="dHpdYgMEqJzql0knfR7l-32" edge="1">
          <mxGeometry width="50" height="50" relative="1" as="geometry">
            <mxPoint x="1170" y="930" as="sourcePoint" />
            <mxPoint x="1220" y="880" as="targetPoint" />
          </mxGeometry>
        </mxCell>
        <mxCell id="dHpdYgMEqJzql0knfR7l-37" value="" style="endArrow=none;html=1;rounded=0;" parent="1" source="dHpdYgMEqJzql0knfR7l-31" target="dHpdYgMEqJzql0knfR7l-34" edge="1">
          <mxGeometry width="50" height="50" relative="1" as="geometry">
            <mxPoint x="1426" y="900" as="sourcePoint" />
            <mxPoint x="1423" y="870" as="targetPoint" />
          </mxGeometry>
        </mxCell>
        <mxCell id="dHpdYgMEqJzql0knfR7l-38" value="" style="endArrow=none;html=1;rounded=0;" parent="1" source="dHpdYgMEqJzql0knfR7l-31" target="dHpdYgMEqJzql0knfR7l-33" edge="1">
          <mxGeometry width="50" height="50" relative="1" as="geometry">
            <mxPoint x="1436" y="910" as="sourcePoint" />
            <mxPoint x="1433" y="880" as="targetPoint" />
          </mxGeometry>
        </mxCell>
        <mxCell id="dHpdYgMEqJzql0knfR7l-39" value="" style="endArrow=none;html=1;rounded=0;" parent="1" source="dHpdYgMEqJzql0knfR7l-35" target="dHpdYgMEqJzql0knfR7l-31" edge="1">
          <mxGeometry width="50" height="50" relative="1" as="geometry">
            <mxPoint x="1446" y="920" as="sourcePoint" />
            <mxPoint x="1443" y="890" as="targetPoint" />
          </mxGeometry>
        </mxCell>
        <mxCell id="dHpdYgMEqJzql0knfR7l-40" value="&lt;span style=&quot;font-size: 11px;&quot;&gt;AUTORIZACIÓN&lt;/span&gt;" style="ellipse;whiteSpace=wrap;html=1;dashed=1;" parent="1" vertex="1">
          <mxGeometry x="1370" y="1000" width="96" height="60" as="geometry" />
        </mxCell>
        <mxCell id="dHpdYgMEqJzql0knfR7l-41" value="" style="endArrow=none;html=1;rounded=0;" parent="1" source="dHpdYgMEqJzql0knfR7l-40" target="dHpdYgMEqJzql0knfR7l-31" edge="1">
          <mxGeometry width="50" height="50" relative="1" as="geometry">
            <mxPoint x="1110" y="1170" as="sourcePoint" />
            <mxPoint x="1160" y="1120" as="targetPoint" />
          </mxGeometry>
        </mxCell>
        <mxCell id="dHpdYgMEqJzql0knfR7l-42" value="CAT 1" style="ellipse;whiteSpace=wrap;html=1;" parent="1" vertex="1">
          <mxGeometry x="1300" y="1060" width="80" height="50" as="geometry" />
        </mxCell>
        <mxCell id="dHpdYgMEqJzql0knfR7l-43" value="CAT 3" style="ellipse;whiteSpace=wrap;html=1;" parent="1" vertex="1">
          <mxGeometry x="1480" y="1050" width="80" height="50" as="geometry" />
        </mxCell>
        <mxCell id="dHpdYgMEqJzql0knfR7l-44" value="CAT 2" style="ellipse;whiteSpace=wrap;html=1;" parent="1" vertex="1">
          <mxGeometry x="1400" y="1082.5" width="80" height="50" as="geometry" />
        </mxCell>
        <mxCell id="dHpdYgMEqJzql0knfR7l-45" value="" style="endArrow=none;html=1;rounded=0;" parent="1" source="dHpdYgMEqJzql0knfR7l-43" target="dHpdYgMEqJzql0knfR7l-40" edge="1">
          <mxGeometry width="50" height="50" relative="1" as="geometry">
            <mxPoint x="1300" y="970" as="sourcePoint" />
            <mxPoint x="1350" y="920" as="targetPoint" />
          </mxGeometry>
        </mxCell>
        <mxCell id="dHpdYgMEqJzql0knfR7l-46" value="" style="endArrow=none;html=1;rounded=0;" parent="1" source="dHpdYgMEqJzql0knfR7l-44" target="dHpdYgMEqJzql0knfR7l-40" edge="1">
          <mxGeometry width="50" height="50" relative="1" as="geometry">
            <mxPoint x="1300" y="970" as="sourcePoint" />
            <mxPoint x="1350" y="920" as="targetPoint" />
          </mxGeometry>
        </mxCell>
        <mxCell id="dHpdYgMEqJzql0knfR7l-47" value="" style="endArrow=none;html=1;rounded=0;" parent="1" source="dHpdYgMEqJzql0knfR7l-42" target="dHpdYgMEqJzql0knfR7l-40" edge="1">
          <mxGeometry width="50" height="50" relative="1" as="geometry">
            <mxPoint x="1300" y="970" as="sourcePoint" />
            <mxPoint x="1350" y="920" as="targetPoint" />
          </mxGeometry>
        </mxCell>
        <mxCell id="dHpdYgMEqJzql0knfR7l-48" value="" style="endArrow=none;html=1;rounded=0;" parent="1" source="TxgCbAa6hnQQ9wby8Wfp-70" target="dHpdYgMEqJzql0knfR7l-31" edge="1">
          <mxGeometry width="50" height="50" relative="1" as="geometry">
            <mxPoint x="1160" y="740" as="sourcePoint" />
            <mxPoint x="1210" y="690" as="targetPoint" />
          </mxGeometry>
        </mxCell>
        <mxCell id="dHpdYgMEqJzql0knfR7l-49" value="1:1" style="edgeLabel;html=1;align=center;verticalAlign=middle;resizable=0;points=[];" parent="dHpdYgMEqJzql0knfR7l-48" vertex="1" connectable="0">
          <mxGeometry x="-0.7642" y="-3" relative="1" as="geometry">
            <mxPoint as="offset" />
          </mxGeometry>
        </mxCell>
        <mxCell id="dHpdYgMEqJzql0knfR7l-50" value="CLASIFICA" style="rhombus;whiteSpace=wrap;html=1;" parent="1" vertex="1">
          <mxGeometry x="290" y="440" width="80" height="80" as="geometry" />
        </mxCell>
        <mxCell id="dHpdYgMEqJzql0knfR7l-51" value="" style="endArrow=none;html=1;rounded=0;" parent="1" source="dHpdYgMEqJzql0knfR7l-50" target="TxgCbAa6hnQQ9wby8Wfp-1" edge="1">
          <mxGeometry width="50" height="50" relative="1" as="geometry">
            <mxPoint x="250" y="540" as="sourcePoint" />
            <mxPoint x="300" y="490" as="targetPoint" />
          </mxGeometry>
        </mxCell>
        <mxCell id="dHpdYgMEqJzql0knfR7l-54" value="1:N" style="edgeLabel;html=1;align=center;verticalAlign=middle;resizable=0;points=[];" parent="dHpdYgMEqJzql0knfR7l-51" vertex="1" connectable="0">
          <mxGeometry x="-0.469" relative="1" as="geometry">
            <mxPoint as="offset" />
          </mxGeometry>
        </mxCell>
        <mxCell id="dHpdYgMEqJzql0knfR7l-52" value="" style="endArrow=none;html=1;rounded=0;" parent="1" source="dHpdYgMEqJzql0knfR7l-53" target="dHpdYgMEqJzql0knfR7l-50" edge="1">
          <mxGeometry width="50" height="50" relative="1" as="geometry">
            <mxPoint x="209.99999999999045" y="480" as="sourcePoint" />
            <mxPoint x="300" y="490" as="targetPoint" />
          </mxGeometry>
        </mxCell>
        <mxCell id="dHpdYgMEqJzql0knfR7l-55" value="1:1" style="edgeLabel;html=1;align=center;verticalAlign=middle;resizable=0;points=[];" parent="dHpdYgMEqJzql0knfR7l-52" vertex="1" connectable="0">
          <mxGeometry x="0.4837" y="-2" relative="1" as="geometry">
            <mxPoint as="offset" />
          </mxGeometry>
        </mxCell>
        <mxCell id="dHpdYgMEqJzql0knfR7l-53" value="MODELO" style="rounded=0;whiteSpace=wrap;html=1;" parent="1" vertex="1">
          <mxGeometry x="140" y="460" width="80" height="40" as="geometry" />
        </mxCell>
        <mxCell id="a-o1L1hOlr_CJ4wFX11g-2" value="1ªCLASE" style="ellipse;whiteSpace=wrap;html=1;" parent="1" vertex="1">
          <mxGeometry x="50" y="310" width="70" height="50" as="geometry" />
        </mxCell>
        <mxCell id="a-o1L1hOlr_CJ4wFX11g-3" value="CLASE&lt;div&gt;ECONOMICA&lt;/div&gt;" style="ellipse;whiteSpace=wrap;html=1;" parent="1" vertex="1">
          <mxGeometry x="-40" y="340" width="90" height="55" as="geometry" />
        </mxCell>
        <mxCell id="a-o1L1hOlr_CJ4wFX11g-7" value="" style="endArrow=none;html=1;rounded=0;" parent="1" source="a-o1L1hOlr_CJ4wFX11g-3" target="TxgCbAa6hnQQ9wby8Wfp-24" edge="1">
          <mxGeometry width="50" height="50" relative="1" as="geometry">
            <mxPoint x="560" y="610" as="sourcePoint" />
            <mxPoint x="610" y="560" as="targetPoint" />
          </mxGeometry>
        </mxCell>
        <mxCell id="a-o1L1hOlr_CJ4wFX11g-8" value="" style="endArrow=none;html=1;rounded=0;" parent="1" source="a-o1L1hOlr_CJ4wFX11g-2" target="TxgCbAa6hnQQ9wby8Wfp-24" edge="1">
          <mxGeometry width="50" height="50" relative="1" as="geometry">
            <mxPoint x="560" y="610" as="sourcePoint" />
            <mxPoint x="610" y="560" as="targetPoint" />
          </mxGeometry>
        </mxCell>
        <mxCell id="a-o1L1hOlr_CJ4wFX11g-11" value="FECHA INICIO" style="ellipse;whiteSpace=wrap;html=1;" parent="1" vertex="1">
          <mxGeometry x="450" y="980" width="80" height="60" as="geometry" />
        </mxCell>
        <mxCell id="a-o1L1hOlr_CJ4wFX11g-12" value="FECHA CADUCIDAD" style="ellipse;whiteSpace=wrap;html=1;" parent="1" vertex="1">
          <mxGeometry x="550" y="957.5" width="90" height="62.5" as="geometry" />
        </mxCell>
        <mxCell id="a-o1L1hOlr_CJ4wFX11g-13" value="" style="endArrow=none;html=1;rounded=0;" parent="1" source="dHpdYgMEqJzql0knfR7l-28" target="a-o1L1hOlr_CJ4wFX11g-11" edge="1">
          <mxGeometry width="50" height="50" relative="1" as="geometry">
            <mxPoint x="560" y="620" as="sourcePoint" />
            <mxPoint x="610" y="570" as="targetPoint" />
          </mxGeometry>
        </mxCell>
        <mxCell id="a-o1L1hOlr_CJ4wFX11g-14" value="" style="endArrow=none;html=1;rounded=0;" parent="1" source="dHpdYgMEqJzql0knfR7l-28" target="a-o1L1hOlr_CJ4wFX11g-12" edge="1">
          <mxGeometry width="50" height="50" relative="1" as="geometry">
            <mxPoint x="560" y="620" as="sourcePoint" />
            <mxPoint x="610" y="570" as="targetPoint" />
          </mxGeometry>
        </mxCell>
        <mxCell id="a-o1L1hOlr_CJ4wFX11g-15" value="HORAS&lt;div&gt;VUELO&lt;/div&gt;" style="ellipse;whiteSpace=wrap;html=1;" parent="1" vertex="1">
          <mxGeometry x="-110" y="675.72" width="80" height="50" as="geometry" />
        </mxCell>
        <mxCell id="a-o1L1hOlr_CJ4wFX11g-16" value="" style="endArrow=none;html=1;rounded=0;" parent="1" source="a-o1L1hOlr_CJ4wFX11g-15" target="TxgCbAa6hnQQ9wby8Wfp-83" edge="1">
          <mxGeometry width="50" height="50" relative="1" as="geometry">
            <mxPoint x="560" y="620" as="sourcePoint" />
            <mxPoint x="610" y="570" as="targetPoint" />
          </mxGeometry>
        </mxCell>
      </root>
    </mxGraphModel>
  </diagram>
</mxfile>
